<svg aria-hidden="true" focusable="false" width="12" height="12" fill="none" class="element-table-item-detail-avatar-v-icon rs-icon" aria-label="VerifyCollection" data-category="direction" id="elementIcon_gC8X-N8eORDc-qe0KHQF" viewBox="0 0 12 12" xmlns="http://www.w3.org/2000/svg"><path fill-rule="evenodd" clip-rule="evenodd" d="M6.3133 10.916C6.12102 10.7982 5.87897 10.7982 5.68669 10.916L4.55762 11.6073C4.22914 11.8084 3.79893 11.6523 3.6758 11.2874L3.24356 10.0062C3.17226 9.79492 2.98963 9.64058 2.76938 9.60552L1.45216 9.3958C1.07638 9.33597 0.850486 8.94596 0.985584 8.59024L1.47261 7.30788C1.55065 7.1024 1.51009 6.8707 1.36689 6.70395L0.477344 5.66811C0.230496 5.38067 0.30858 4.93921 0.639051 4.75388L1.81689 4.09335C2.0097 3.98522 2.12744 3.77982 2.1233 3.5588L2.09773 2.19254C2.09056 1.80962 2.43911 1.51809 2.81474 1.59285L4.11262 1.85115C4.33307 1.89502 4.55954 1.81201 4.69941 1.63606L5.53032 0.590823C5.77054 0.288649 6.22946 0.288649 6.46968 0.590823L7.30059 1.63606C7.44046 1.81201 7.66693 1.89502 7.88738 1.85115L9.18526 1.59285C9.56089 1.51809 9.90944 1.80962 9.90227 2.19254L9.8767 3.5588C9.87256 3.77982 9.99029 3.98522 10.1831 4.09335L11.3609 4.75388C11.6914 4.93921 11.7695 5.38067 11.5227 5.66811L10.6331 6.70395C10.4899 6.8707 10.4494 7.1024 10.5274 7.30788L11.0144 8.59024C11.1495 8.94596 10.9236 9.33597 10.5478 9.3958L9.23062 9.60552C9.01037 9.64058 8.82774 9.79492 8.75644 10.0062L8.3242 11.2874C8.20107 11.6523 7.77086 11.8084 7.44238 11.6073L6.3133 10.916Z" fill="#705DDE"></path><path fill-rule="evenodd" clip-rule="evenodd" d="M7.56258 4.251H8.86644L6.50591 8.68505C6.41044 8.87298 6.21697 8.9934 6.00345 8.99778C5.78993 9.00217 5.59152 8.8898 5.48817 8.70595L3.7845 5.56788L3.36539 6.10078L2.87891 5.80625L3.62103 4.52271C3.72683 4.34926 3.91872 4.24457 4.12433 4.24814C4.32993 4.2517 4.51795 4.36298 4.61747 4.54L5.96567 7.21729L7.56258 4.251Z" fill="white"></path></svg>